{"title":"Robin Thicke Ft. T.I. &amp; Pharrell - Blurred Lines [Unrated] 7","uid":8789100,"size":59376413,"categoryP":"video","categoryS":"music_videos","magnet":"?xt=urn:btih:5ba46fa7c51c74d292a9d0a47028705aadd6d89b&amp;dn=Robin+Thicke+Ft.+T.I.+%26amp%3B+Pharrell+-+Blurred+Lines+%5BUnrated%5D+7&amp;tr=udp%3A%2F%2Ftracker.openbittorrent.com%3A80&amp;tr=udp%3A%2F%2Fopen.demonii.com%3A1337&amp;tr=udp%3A%2F%2Ftracker.coppersurfer.tk%3A6969&amp;tr=udp%3A%2F%2Fexodus.desync.com%3A6969","seeders":1,"leechers":0,"uploader":"Sbyky","files":-1,"time":1375896085,"description":"[IMG]http://www.shotpix.com/photos/20130807137588807974154.jpg[/IMG]\n\nGeneral\nComplete name                            : Robin Thicke Ft. T.I. &amp; Pharrell - Blurred Lines [Unrated] 720p [Sbyky].mp4\nFormat                                   : MPEG-4\nFormat profile                           : Base Media / Version 2\nCodec ID                                 : mp42\nFile size                                : 56.6 MiB\nDuration                                 : 4mn 31s\nOverall bit rate mode                    : Variable\nOverall bit rate                         : 1 747 Kbps\nEncoded date                             : UTC 2013-07-09 10:43:43\nTagged date                              : UTC 2013-07-09 10:43:43\n\nVideo\nID                                       : 1\nFormat                                   : AVC\nFormat/Info                              : Advanced Video Codec\nFormat profile                           : &lt;a class=&quot;__cf_email__&quot; href=&quot;/cdn-cgi/l/email-protection&quot; data-cfemail=&quot;3179585659717d021f00&quot;&gt;[email&amp;#160;protected]&lt;/a&gt;&lt;script cf-hash='f9e31' type=&quot;text/javascript&quot;&gt;\n/* &lt;![CDATA[ */!function(){try{var t=&quot;currentScript&quot;in document?document.currentScript:function(){for(var t=document.getElementsByTagName(&quot;script&quot;),e=t.length;e--;)if(t[e].getAttribute(&quot;cf-hash&quot;))return t[e]}();if(t&amp;&amp;t.previousSibling){var e,r,n,i,c=t.previousSibling,a=c.getAttribute(&quot;data-cfemail&quot;);if(a){for(e=&quot;&quot;,r=parseInt(a.substr(0,2),16),n=2;a.length-n;n+=2)i=parseInt(a.substr(n,2),16)^r,e+=String.fromCharCode(i);e=document.createTextNode(e),c.parentNode.replaceChild(e,c)}}}catch(u){}}();/* ]]&gt; */&lt;/script&gt;\nFormat settings, CABAC                   : Yes\nFormat settings, ReFrames                : 1 frame\nCodec ID                                 : avc1\nCodec ID/Info                            : Advanced Video Coding\nDuration                                 : 4mn 31s\nBit rate                                 : 1 553 Kbps\nMaximum bit rate                         : 3 388 Kbps\nWidth                                    : 1 280 pixels\nHeight                                   : 720 pixels\nDisplay aspect ratio                     : 16:9\nFrame rate mode                          : Constant\nFrame rate                               : 23.976 fps\nColor space                              : YUV\nChroma subsampling                       : 4:2:0\nBit depth                                : 8 bits\nScan type                                : Progressive\nBits/(Pixel*Frame)                       : 0.070\nStream size                              : 50.3 MiB (89%)\nTagged date                              : UTC 2013-07-09 10:43:54\n\nAudio\nID                                       : 2\nFormat                                   : AAC\nFormat/Info                              : Advanced Audio Codec\nFormat profile                           : LC\nCodec ID                                 : 40\nDuration                                 : 4mn 31s\nBit rate mode                            : Variable\nBit rate                                 : 192 Kbps\nMaximum bit rate                         : 202 Kbps\nChannel(s)                               : 2 channels\nChannel positions                        : Front: L R\nSampling rate                            : 44.1 KHz\nCompression mode                         : Lossy\nStream size                              : 6.22 MiB (11%)\nTitle                                    : IsoMedia File Produced by Google, 5-11-2011\nEncoded date                             : UTC 2013-07-09 10:43:51\nTagged date                              : UTC 2013-07-09 10:43:54\n\nShared By Sbyky\n[IMG]http://www.shotpix.com/photos/20130722137449689157289.gif[/IMG]\n[IMG]http://www.shotpix.com/photos/20130722137449694197310.gif[/IMG]","torrent":{"xt":"urn:btih:5ba46fa7c51c74d292a9d0a47028705aadd6d89b","amp;dn":"Robin+Thicke+Ft.+T.I.+%26amp%3B+Pharrell+-+Blurred+Lines+%5BUnrated%5D+7","amp;tr":["udp%3A%2F%2Ftracker.openbittorrent.com%3A80","udp%3A%2F%2Fopen.demonii.com%3A1337","udp%3A%2F%2Ftracker.coppersurfer.tk%3A6969","udp%3A%2F%2Fexodus.desync.com%3A6969"],"infoHash":"5ba46fa7c51c74d292a9d0a47028705aadd6d89b","infoHashBuffer":{"type":"Buffer","data":[91,164,111,167,197,28,116,210,146,169,208,164,112,40,112,90,173,214,216,155]},"announce":[],"urlList":[]}}